Coordinates
version=1
nRows=43
nColumns=12
inDegrees=yes

Units are S.I. units (second, meters, Newtons, ...)
Angles are in degrees

endheader
time	SC_y	SC_z	SC_x	AC_y	AC_z	AC_x	GH_y	GH_z	GH_yy	EL_x	PS_y
       0.0              -24.66           6.66          83.65          49.01         -2.438          -15.8           44.6         -18.84         -40.29          47.38          125.5
   0.04828              -24.66          6.663          83.64          49.01         -2.438          -15.8          44.58         -18.84         -40.29          47.39          125.4
   0.09656              -24.66          6.666          83.63          49.02         -2.438         -15.79          44.56         -18.83         -40.28          47.39          125.4
    0.1448              -24.67          6.668          83.63          49.02         -2.438         -15.79          44.54         -18.83         -40.27           47.4          125.4
    0.1931              -24.67          6.671          83.62          49.02         -2.437         -15.78          44.52         -18.82         -40.26           47.4          125.4
    0.2414              -24.67          6.675          83.61          49.02         -2.437         -15.78          44.49         -18.81         -40.25          47.41          125.4
    0.2897              -24.68          6.678          83.61          49.03         -2.437         -15.77          44.47          -18.8         -40.25          47.42          125.4
     0.338              -24.68          6.682           83.6          49.03         -2.437         -15.76          44.44         -18.79         -40.24          47.42          125.3
    0.3862              -24.69          6.685          83.59          49.03         -2.437         -15.76          44.41         -18.78         -40.22          47.43          125.3
    0.4345              -24.69           6.69          83.58          49.04         -2.436         -15.75          44.38         -18.77         -40.21          47.44          125.3
    0.4828               -24.7          6.694          83.57          49.04         -2.436         -15.74          44.34         -18.76          -40.2          47.45          125.3
    0.5311               -24.7          6.699          83.56          49.04         -2.436         -15.73          44.31         -18.75         -40.19          47.46          125.2
    0.5794              -24.71          6.704          83.55          49.05         -2.436         -15.72          44.27         -18.74         -40.17          47.47          125.2
    0.6276              -24.72           6.71          83.54          49.05         -2.435         -15.71          44.23         -18.73         -40.16          47.48          125.2
    0.6759              -24.72          6.716          83.53          49.06         -2.435          -15.7          44.18         -18.71         -40.14          47.49          125.1
    0.7242              -24.73          6.722          83.51          49.06         -2.435         -15.69          44.13          -18.7         -40.12           47.5          125.1
    0.7725              -24.74           6.73           83.5          49.07         -2.434         -15.68          44.08         -18.68          -40.1          47.52          125.0
    0.8207              -24.75          6.737          83.48          49.07         -2.434         -15.66          44.02         -18.66         -40.08          47.53          125.0
     0.869              -24.76          6.746          83.46          49.08         -2.434         -15.65          43.95         -18.64         -40.06          47.55          124.9
    0.9173              -24.77          6.755          83.44          49.09         -2.433         -15.63          43.88         -18.62         -40.03          47.56          124.9
    0.9656              -24.78          6.765          83.42           49.1         -2.433         -15.61          43.81         -18.59          -40.0          47.58          124.8
     1.014               -24.8          6.777          83.39          49.11         -2.432         -15.59          43.72         -18.57         -39.97           47.6          124.7
     1.062              -24.81          6.789          83.37          49.12         -2.431         -15.57          43.63         -18.54         -39.94          47.63          124.7
      1.11              -24.83          6.803          83.34          49.13         -2.431         -15.54          43.52          -18.5          -39.9          47.65          124.6
     1.159              -24.85          6.818           83.3          49.14          -2.43         -15.51          43.41         -18.47         -39.85          47.68          124.5
     1.207              -24.87          6.835          83.26          49.15         -2.429         -15.48          43.28         -18.43         -39.81          47.72          124.4
     1.255              -24.89          6.854          83.22          49.17         -2.428         -15.45          43.14         -18.38         -39.75          47.75          124.2
     1.304              -24.92          6.876          83.18          49.19         -2.427         -15.41          42.97         -18.33         -39.69          47.79          124.1
     1.352              -24.94            6.9          83.12          49.21         -2.426         -15.36          42.79         -18.27         -39.62          47.84          123.9
       1.4              -24.98          6.928          83.06          49.23         -2.424         -15.31          42.58          -18.2         -39.55          47.89          123.8
     1.448              -25.02           6.96          82.99          49.26         -2.423         -15.26          42.34         -18.13         -39.46          47.95          123.6
     1.497              -25.06          6.996          82.91          49.29         -2.421         -15.19          42.07         -18.04         -39.36          48.02          123.3
     1.545              -25.11          7.038          82.82          49.32         -2.419         -15.11          41.75         -17.94         -39.24           48.1          123.1
     1.593              -25.17          7.086          82.72          49.36         -2.416         -15.02          41.39         -17.82         -39.11          48.19          122.8
     1.641              -25.24          7.143          82.59          49.41         -2.413         -14.92          40.96         -17.69         -38.95           48.3          122.4
      1.69              -25.32           7.21          82.45          49.46          -2.41          -14.8          40.45         -17.53         -38.76          48.42          122.0
     1.738              -25.41           7.29          82.27          49.53         -2.406         -14.65          39.85         -17.34         -38.54          48.58          121.5
     1.786              -25.53          7.385          82.07          49.61         -2.401         -14.48          39.13         -17.11         -38.27          48.76          120.9
     1.835              -25.67          7.501          81.81           49.7         -2.395         -14.27          38.26         -16.83         -37.95          48.97          120.2
     1.883              -25.84          7.642          81.51          49.82         -2.388         -14.01           37.2         -16.49         -37.55          49.24          119.3
     1.931              -26.04          7.816          81.13          49.96         -2.379         -13.69          35.89         -16.08         -37.07          49.57          118.2
     1.979              -26.31          8.033          80.65          50.14         -2.368         -13.29          34.25         -15.56         -36.46          49.98          116.8
     2.028              -26.63          8.306          80.06          50.36         -2.354          -12.8          32.19          -14.9          -35.7           50.5          115.1
